<svg width="132" height="132" viewBox="0 0 132 132" fill="none" xmlns="http://www.w3.org/2000/svg">
<g clip-path="url(#clip0_59_26)">
<mask id="mask0_59_26" style="mask-type:luminance" maskUnits="userSpaceOnUse" x="0" y="0" width="132" height="132">
<path d="M0 0H132V132H0V0Z" fill="white"/>
</mask>
<g mask="url(#mask0_59_26)">
<path d="M3 0C3 -1.65685 1.65685 -3 0 -3C-1.65685 -3 -3 -1.65685 -3 0C-3 1.65685 -1.65685 3 0 3C1.65685 3 3 1.65685 3 0Z" fill="#FFDFC4"/>
<path d="M69 0C69 -1.65685 67.6569 -3 66 -3C64.3431 -3 63 -1.65685 63 0C63 1.65685 64.3431 3 66 3C67.6569 3 69 1.65685 69 0Z" fill="#FFDFC4"/>
<path d="M69 66C69 64.3431 67.6569 63 66 63C64.3431 63 63 64.3431 63 66C63 67.6569 64.3431 69 66 69C67.6569 69 69 67.6569 69 66Z" fill="#FFDFC4"/>
<path d="M69 132C69 130.343 67.6569 129 66 129C64.3431 129 63 130.343 63 132C63 133.657 64.3431 135 66 135C67.6569 135 69 133.657 69 132Z" fill="#FFDFC4"/>
<path d="M135 0C135 -1.65685 133.657 -3 132 -3C130.343 -3 129 -1.65685 129 0C129 1.65685 130.343 3 132 3C133.657 3 135 1.65685 135 0Z" fill="#FFDFC4"/>
<path d="M135 66C135 64.3431 133.657 63 132 63C130.343 63 129 64.3431 129 66C129 67.6569 130.343 69 132 69C133.657 69 135 67.6569 135 66Z" fill="#FFDFC4"/>
<path d="M135 132C135 130.343 133.657 129 132 129C130.343 129 129 130.343 129 132C129 133.657 130.343 135 132 135C133.657 135 135 133.657 135 132Z" fill="#FFDFC4"/>
<path d="M3 66C3 64.3431 1.65685 63 0 63C-1.65685 63 -3 64.3431 -3 66C-3 67.6569 -1.65685 69 0 69C1.65685 69 3 67.6569 3 66Z" fill="#FFDFC4"/>
<path d="M3 132C3 130.343 1.65685 129 0 129C-1.65685 129 -3 130.343 -3 132C-3 133.657 -1.65685 135 0 135C1.65685 135 3 133.657 3 132Z" fill="#FFDFC4"/>
</g>
</g>
<defs>
<clipPath id="clip0_59_26">
<rect width="132" height="132" fill="white"/>
</clipPath>
</defs>
</svg>
